# xmcd
# 
# Track frame offsets:
#     150
#     9827
#     19650
#     29553
#     40972
#     53098
#     65155
#     76792
#     84723
#     98118
#     106283
#     116908
#     128908
#     138618
#     148349
#     157919
#     167765
#     175883
#     187099
#     200992
# 
# Disc length: 2961
# 
# Revision: 1
# Processed by: cddbd v1.5.2PL0 Copyright (c) Steve Scherf et al.
# Submitted via: fre:ac v1.0.17
# 
DISCID=200b8f14
DTITLE=Foley Blaze  - The Dawg Years 1975-1978
DYEAR=2010
DGENRE=Country
TTITLE0=You'll Get Yours Aplenty
TTITLE1=I Should Have Been Home
TTITLE2=Tree House Lullaby
TTITLE3=Election Day
TTITLE4=Let Me Ride In Your Big Cadillac
TTITLE5=The Moonlight Song
TTITLE6=Cold, Cold World
TTITLE7=Instrumental
TTITLE8=Fat Boy
TTITLE9=Cosmic Doo Doo
TTITLE10=Crawl Back To You
TTITLE11=June Or September
TTITLE12=Livin' In the Woods In A Tree
TTITLE13=Basil's Song
TTITLE14=Rudee Down In New Orleans
TTITLE15=New Wave Blues
TTITLE16=Big Chief Hightower
TTITLE17=Big Cheeseburgers And Good French Fries
TTITLE18=Blaze Foley's 113th Wet Dream
TTITLE19=Springtime In Uganda
EXTD=
EXTT0=
EXTT1=
EXTT2=
EXTT3=
EXTT4=
EXTT5=
EXTT6=
EXTT7=
EXTT8=
EXTT9=
EXTT10=
EXTT11=
EXTT12=
EXTT13=
EXTT14=
EXTT15=
EXTT16=
EXTT17=
EXTT18=
EXTT19=
PLAYORDER=
